<svg xmlns="http://www.w3.org/2000/svg" width="20.101" height="16.207" viewBox="0 0 20.101 16.207">
  <g id="グループ_2" data-name="グループ 2" transform="translate(-120.811 -174.896)">
    <path id="パス_1" data-name="パス 1" d="M130.478,267.677h-9.206a.431.431,0,0,0-.436.586l2.426,8.065a.876.876,0,0,0,.789.586h7.427a.876.876,0,0,0,.789-.586l2.425-8.065a.431.431,0,0,0-.436-.586Z" transform="translate(0 -89.441)"/>
    <path id="パス_2" data-name="パス 2" d="M185.038,174.9H182a.642.642,0,0,0-.129.013l-.035.009-.025.006-.045.016-.013,0-.041.019-.015.007-.033.02-.021.013-.024.017-.027.02-.015.014-.031.028-.009.01c-.011.012-.022.023-.033.036l-.007.009c-.011.013-.021.027-.03.04l-.013.022c-.006.01-.013.02-.019.031a.634.634,0,0,0-.05.12l-3.918,12.791h-9.581a.641.641,0,0,0,0,1.283h1.226a1.143,1.143,0,1,0,2.019,0h3.671a1.143,1.143,0,1,0,2.018,0h1.122c.02,0,.041,0,.061,0l.015,0,.043-.007.021,0,.036-.009.021-.006.046-.017.025-.011.032-.015.021-.012.029-.018.018-.012.032-.024.013-.01a.643.643,0,0,0,.082-.082l.006-.007c.01-.013.02-.025.029-.039l.009-.014.021-.034.01-.019.015-.032.01-.023c0-.01.008-.02.011-.031s.006-.016.009-.025l3.918-12.791h2.56a.641.641,0,0,0,0-1.283Z" transform="translate(-44.767 0)"/>
  </g>
</svg>
