<svg xmlns="http://www.w3.org/2000/svg" width="110.623" height="46" viewBox="0 0 110.623 46">
  <g id="グループ_35" data-name="グループ 35" transform="translate(-2.504 -290.832)">
    <path id="パス_3" data-name="パス 3" d="M52.893,308.52l-.02-.308a6.476,6.476,0,0,0-1.039-.168q-7.364-.018-14.728.007a2.959,2.959,0,0,0-.965.38c.321.176.663.532.961.5,2.03-.226,2.973.851,3.646,2.607,2.955,7.712,5.976,15.4,9,23.082a17.558,17.558,0,0,0,1.216,2.161,15.551,15.551,0,0,0,1.213-2.179c1.826-4.962,3.6-9.944,5.4-14.917a6.926,6.926,0,0,1,.363-.7c1.732,4.486,3.393,8.806,5.07,13.12q.807,2.077,1.694,4.123c.11.254.457.639.592.6.277-.078.5-.385.713-.632a1.452,1.452,0,0,0,.175-.483c.822-2.494,1.595-5.006,2.475-7.479,2.016-5.665,4.1-11.306,6.121-16.968.5-1.41,1.272-2.328,2.919-2.242a4.636,4.636,0,0,0,1.348-.347q-.019-.163-.038-.326a1.8,1.8,0,0,0-.607-.254q-4.15-.025-8.3.005c-.221,0-.44.231-.66.354.2.185.389.506.61.532.753.086,1.519.04,2.276.1.983.074,1.258.45,1.122,1.435a3.2,3.2,0,0,1-.118.61q-2.273,6.558-4.563,13.11c-.011.033-.115.033-.23.063-.389-.874-.8-1.745-1.17-2.635-1.585-3.832-3.144-7.675-4.744-11.5-.335-.8-.8-1.545-1.209-2.316l-.355.008a14.3,14.3,0,0,0-.959,1.77c-1.257,3.33-2.47,6.677-3.7,10.016-.628,1.7-1.268,3.39-1.991,5.319-.838-2.374-1.584-4.485-2.328-6.6-.907-2.575-1.839-5.142-2.7-7.73-.385-1.151-.049-1.582,1.168-1.726.48-.057.968-.053,1.445-.124A6.353,6.353,0,0,0,52.893,308.52Zm60.235,26.9-.044-.483c-.483-.037-.966-.112-1.448-.1-2.9.047-2.959.053-2.964-2.873q-.035-19.821-.007-39.642v-1.482a18.36,18.36,0,0,1-2.591.819c-3,.473-6.01.855-9.014,1.289-.582.084-1.152.246-1.727.372q.027.259.055.518c.866.061,1.733.11,2.6.186,1.622.142,1.873.408,1.967,2.035q.018.311.017.622,0,17.59-.019,35.18c-.005,3.01-.052,3.005-3,3.053a8.193,8.193,0,0,0-1.375.253l.021.47a14.424,14.424,0,0,0,1.624.169c3.458-.017,6.916-.066,10.374-.089,1.486-.01,2.972.039,4.457.014A4.267,4.267,0,0,0,113.127,335.416Zm-74.612-.032q0-.153-.007-.305a4.569,4.569,0,0,0-.976-.257c-.69-.03-1.383.026-2.075.025-.815,0-1.305-.357-1.332-1.235-.035-1.141-.139-2.281-.139-3.421q0-19.152.033-38.3c0-.324-.03-.648-.049-1.023a18.7,18.7,0,0,1-2.577.8c-3,.469-6.011.854-9.017,1.279-.6.085-1.323-.093-1.766.865.76.066,1.394.151,2.031.172,2.418.078,2.622.273,2.7,2.71.011.346.007.692.007,1.038q0,6.9,0,13.806c-.007,6.816.014,13.633-.049,20.449-.027,2.9-.109,2.885-3.006,2.927a7.8,7.8,0,0,0-1.369.262l.027.462a15.724,15.724,0,0,0,1.64.17q6.433.016,12.866-.007c.725,0,1.453-.02,2.174-.089A3.649,3.649,0,0,0,38.516,335.384Zm-35.687-.269q-.014.273-.029.546a6.456,6.456,0,0,0,1.187.217q7.625-.016,15.249-.086a3.146,3.146,0,0,0,1.026-.411c-.333-.162-.663-.332-1-.481a.876.876,0,0,0-.309-.009c-2.933-.058-3.069-.176-3.09-3.152-.044-6.572-.051-13.144-.108-19.715-.014-1.609-.164-3.216-.253-4.843a2.273,2.273,0,0,0-.451.047,33.14,33.14,0,0,1-11.377,2.017.992.992,0,0,0-.41.028,9.028,9.028,0,0,0-.758.5,2.466,2.466,0,0,0,.734.387,12.759,12.759,0,0,0,1.45.033c2.1.049,2.473.381,2.48,2.506q.036,9.961,0,19.923c-.006,1.889-.292,2.126-2.163,2.248C4.279,334.922,3.555,335.033,2.829,335.115Zm87.288-28.074a33.612,33.612,0,0,1-12.191,2.224c-.1,0-.233-.016-.3.037a5.314,5.314,0,0,0-.478.445c.163.139.311.372.491.4a9.7,9.7,0,0,0,1.345.047c2.5.022,2.8.224,2.818,2.7q.08,9.752.013,19.5c-.013,2.224-.262,2.4-2.46,2.49a3.192,3.192,0,0,0-.414.015c-.512.091-1.023.193-1.534.291q0,.228,0,.455a8.157,8.157,0,0,0,1.375.228c4.909-.011,9.819-.046,14.728-.074a5.154,5.154,0,0,0,.93-.018c.166-.032.3-.227.45-.348-.14-.169-.249-.41-.428-.489a1.97,1.97,0,0,0-.717-.05c-3.148-.069-3.269-.179-3.279-3.3-.021-6.536-.012-13.073-.055-19.609C90.393,310.4,90.225,308.825,90.117,307.041ZM7.343,294.908a4.1,4.1,0,0,0,4.1,4.287A4.217,4.217,0,0,0,15.7,294.9a3.928,3.928,0,0,0-3.951-4.059A4.041,4.041,0,0,0,7.343,294.908Zm82.97-.052a3.906,3.906,0,0,0-4.093-4.012,4.062,4.062,0,0,0-4.271,4.111,4.139,4.139,0,0,0,4.275,4.239A4.2,4.2,0,0,0,90.313,294.856Z" fill="#fff"/>
    <path id="パス_4" data-name="パス 4" d="M181.247,373.47a6.35,6.35,0,0,1-.906.27c-.477.071-.965.067-1.445.124-1.217.143-1.553.575-1.168,1.726.866,2.589,1.8,5.155,2.7,7.73.744,2.112,1.49,4.223,2.328,6.6.723-1.929,1.363-3.622,1.991-5.319,1.234-3.339,2.447-6.686,3.7-10.016a14.3,14.3,0,0,1,.959-1.77l.355-.008c.406.77.874,1.515,1.209,2.316,1.6,3.826,3.159,7.668,4.744,11.5.368.89.78,1.761,1.17,2.635.116-.029.219-.03.23-.062q2.29-6.552,4.563-13.11a3.2,3.2,0,0,0,.118-.61c.136-.985-.14-1.361-1.122-1.435-.757-.057-1.524-.011-2.276-.1-.221-.025-.408-.346-.61-.532.22-.124.439-.352.66-.354q4.15-.037,8.3-.005a1.8,1.8,0,0,1,.607.254q.019.163.038.326a4.635,4.635,0,0,1-1.348.347c-1.647-.087-2.415.831-2.919,2.242-2.024,5.662-4.106,11.3-6.121,16.967-.88,2.474-1.653,4.985-2.475,7.48a1.452,1.452,0,0,1-.175.483c-.208.246-.436.554-.713.632-.135.038-.482-.346-.592-.6q-.885-2.045-1.694-4.123c-1.677-4.314-3.338-8.635-5.07-13.12a6.922,6.922,0,0,0-.363.7c-1.8,4.973-3.569,9.955-5.4,14.917a15.553,15.553,0,0,1-1.213,2.179,17.553,17.553,0,0,1-1.216-2.161c-3.028-7.684-6.049-15.37-9-23.082-.673-1.756-1.616-2.833-3.646-2.607-.3.033-.64-.323-.961-.5a2.96,2.96,0,0,1,.965-.38q7.364-.035,14.728-.007a6.479,6.479,0,0,1,1.039.168Z" transform="translate(-128.355 -64.951)"/>
    <path id="パス_5" data-name="パス 5" d="M467.35,335.416a4.266,4.266,0,0,1-1.079.309c-1.485.026-2.971-.024-4.457-.014-3.458.023-6.916.072-10.374.089a14.423,14.423,0,0,1-1.624-.169l-.021-.47a8.192,8.192,0,0,1,1.375-.253c2.953-.048,3-.043,3-3.053q.032-17.59.019-35.18,0-.311-.017-.622c-.094-1.627-.346-1.893-1.967-2.035-.865-.076-1.732-.125-2.6-.186q-.028-.259-.055-.518c.575-.126,1.145-.289,1.727-.372,3-.434,6.016-.816,9.014-1.289a18.361,18.361,0,0,0,2.591-.819v1.482q0,19.821.007,39.642c.005,2.926.067,2.92,2.964,2.873.482-.008.965.068,1.448.1Z" transform="translate(-354.223)"/>
    <path id="パス_6" data-name="パス 6" d="M107.607,335.5a3.648,3.648,0,0,1-.88.321c-.721.069-1.449.087-2.174.089q-6.433.016-12.867.007a15.724,15.724,0,0,1-1.64-.17l-.027-.462a7.8,7.8,0,0,1,1.369-.262c2.9-.043,2.979-.031,3.006-2.927.063-6.816.042-13.633.049-20.449q.007-6.9,0-13.806c0-.346,0-.692-.007-1.038-.081-2.437-.285-2.632-2.7-2.71-.637-.021-1.271-.105-2.031-.172.443-.958,1.166-.781,1.766-.865,3.006-.425,6.018-.81,9.017-1.279a18.706,18.706,0,0,0,2.577-.8c.019.375.049.7.049,1.023q-.017,19.152-.033,38.3c0,1.14.1,2.28.139,3.421.027.878.517,1.234,1.332,1.235.692,0,1.385-.054,2.075-.025a4.571,4.571,0,0,1,.976.257Q107.6,335.347,107.607,335.5Z" transform="translate(-69.092 -0.116)"/>
    <path id="パス_7" data-name="パス 7" d="M2.829,397.5c.726-.082,1.45-.192,2.178-.24,1.871-.123,2.157-.36,2.163-2.248q.031-9.961,0-19.923c-.007-2.125-.382-2.457-2.48-2.506a12.767,12.767,0,0,1-1.45-.033,2.466,2.466,0,0,1-.734-.387,9.02,9.02,0,0,1,.758-.5.99.99,0,0,1,.41-.028,33.139,33.139,0,0,0,11.377-2.017,2.273,2.273,0,0,1,.451-.047c.089,1.626.239,3.234.253,4.843.057,6.572.064,13.143.108,19.715.02,2.976.156,3.094,3.09,3.153a.875.875,0,0,1,.309.009c.34.148.669.319,1,.481a3.147,3.147,0,0,1-1.026.411q-7.624.079-15.249.086a6.456,6.456,0,0,1-1.187-.217Q2.814,397.771,2.829,397.5Z" transform="translate(0 -62.383)"/>
    <path id="パス_8" data-name="パス 8" d="M374.929,368.892c.108,1.784.276,3.363.287,4.943.044,6.536.034,13.073.055,19.609.01,3.12.131,3.23,3.279,3.3a1.969,1.969,0,0,1,.717.05c.18.08.288.32.428.489-.149.121-.284.316-.45.348a5.154,5.154,0,0,1-.93.018c-4.909.028-9.819.063-14.728.074a8.156,8.156,0,0,1-1.375-.228q0-.228,0-.455c.511-.1,1.022-.2,1.534-.291a3.186,3.186,0,0,1,.414-.015c2.2-.094,2.447-.266,2.46-2.49q.057-9.752-.013-19.5c-.02-2.472-.321-2.674-2.818-2.7a9.7,9.7,0,0,1-1.345-.047c-.179-.027-.328-.26-.491-.4a5.308,5.308,0,0,1,.478-.445c.071-.053.2-.034.3-.037A33.611,33.611,0,0,0,374.929,368.892Z" transform="translate(-284.812 -61.851)"/>
    <path id="パス_9" data-name="パス 9" d="M25.806,294.955a4.041,4.041,0,0,1,4.4-4.063,3.928,3.928,0,0,1,3.951,4.058,4.217,4.217,0,0,1-4.249,4.292A4.1,4.1,0,0,1,25.806,294.955Z" transform="translate(-18.464 -0.047)"/>
    <path id="パス_10" data-name="パス 10" d="M393.465,294.9a4.2,4.2,0,0,1-4.089,4.338A4.139,4.139,0,0,1,385.1,295a4.062,4.062,0,0,1,4.271-4.111A3.906,3.906,0,0,1,393.465,294.9Z" transform="translate(-303.151 -0.046)"/>
  </g>
</svg>
